<?xml version="1.0" encoding="UTF-8"?>
<svg id="_レイヤー_2" data-name="レイヤー 2" xmlns="http://www.w3.org/2000/svg" viewBox="0 0 406.71 240.49">
  <defs>
    <style>
      .cls-1 {
        stroke: #fffdfd;
        stroke-miterlimit: 10;
        stroke-width: 2px;
      }

      .cls-1, .cls-2 {
        fill: #f4f2f2;
      }
    </style>
  </defs>
  <g id="_レイヤー_1" data-name="レイヤー 1">
    <path class="cls-1" d="M203.35,34.25c23.5,0,48.05,5.18,72.96,15.38,20.29,8.31,40.86,19.96,61.14,34.61,22.27,16.09,39.33,32.37,48.84,42.12-24.26,24.86-97.78,92.13-182.93,92.13-23.5,0-48.05-5.18-72.96-15.38-20.29-8.31-40.86-19.96-61.14-34.61-22.27-16.1-39.33-32.37-48.84-42.12,9.51-9.76,26.57-26.03,48.84-42.13,20.27-14.65,40.84-26.3,61.14-34.61,24.91-10.21,49.46-15.38,72.96-15.38M203.35,20.25C91.77,20.25,1.31,126.37,1.31,126.37c0,0,90.46,106.12,202.04,106.12s202.04-106.12,202.04-106.12c0,0-90.46-106.12-202.04-106.12h0Z"/>
    <circle class="cls-2" cx="203.35" cy="126.37" r="79.59"/>
    <path class="cls-1" d="M12.34,239.49c-2.56,0-5.06-1.12-6.56-3.18-2.36-3.24-1.33-7.58,2.29-9.69L393.31,2.13c3.62-2.11,8.46-1.19,10.82,2.05,2.36,3.24,1.33,7.58-2.29,9.69L16.6,238.36c-1.32.77-2.8,1.13-4.26,1.13Z"/>
  </g>
</svg>